<svg xmlns="http://www.w3.org/2000/svg" viewBox="0 0 344.34 195.85"><defs><style>.cls-1{fill:#61331e;}.cls-2{fill:#4f9447;}</style></defs><title>Corner Farm Chicago</title><g data-name="Layer 2"><g data-name="Layer 2"><path class="cls-1" d="M192,139.35a12.59,12.59,0,0,0-9.27,3.55,14.18,14.18,0,0,0-3.78,9.45v30.12c0,5.23,3.47,13,13,13a12.59,12.59,0,0,0,9.27-3.55,14.18,14.18,0,0,0,3.78-9.45V152.35C205,147.12,201.53,139.35,192,139.35ZM197,182.5a6.41,6.41,0,0,1-1.46,3.79,4.8,4.8,0,0,1-3.59,1.18c-4.3,0-5-3.16-5-5V152.32a6.41,6.41,0,0,1,1.46-3.79,4.84,4.84,0,0,1,3.59-1.18c4.3,0,5,3.16,5.05,5V182.5Z"/><path class="cls-1" d="M24.1,159a2,2,0,0,0,2-2v-4.24c0-5.22-3.47-13-13-13a12.59,12.59,0,0,0-9.27,3.55A14.23,14.23,0,0,0,0,152.72v30.13c0,5.22,3.48,13,13.05,13a12.59,12.59,0,0,0,9.27-3.55,14.12,14.12,0,0,0,3.78-9.45v-4.39a2,2,0,0,0-2-2h-4a2,2,0,0,0-2,2v4.42a6.33,6.33,0,0,1-1.45,3.78,4.84,4.84,0,0,1-3.6,1.19c-4.3,0-5-3.16-5.05-5V152.7a6.37,6.37,0,0,1,1.46-3.79,4.81,4.81,0,0,1,3.59-1.19c4.3,0,5,3.16,5.05,5V157a2,2,0,0,0,2,2Z"/><path class="cls-1" d="M105.52,159a2,2,0,0,0,2-2v-4.24c0-5.22-3.47-13-13-13a12.59,12.59,0,0,0-9.27,3.55,14.18,14.18,0,0,0-3.78,9.45v30.13c0,5.22,3.47,13,13,13a12.59,12.59,0,0,0,9.27-3.55,14.18,14.18,0,0,0,3.78-9.45v-4.39a2,2,0,0,0-2-2h-4a2,2,0,0,0-2,2v4.42a6.37,6.37,0,0,1-1.46,3.78,4.81,4.81,0,0,1-3.59,1.19c-4.3,0-5-3.16-5-5V152.7a6.37,6.37,0,0,1,1.46-3.79,4.8,4.8,0,0,1,3.59-1.19c4.3,0,5,3.16,5,5V157a2,2,0,0,0,2,2Z"/><path class="cls-1" d="M126.84,139.72a12.59,12.59,0,0,0-9.27,3.55,14.18,14.18,0,0,0-3.78,9.45v39.5a2,2,0,0,0,2,2h4a2,2,0,0,0,2-2V171.16h10.1v21.06a2,2,0,0,0,2,2h4a2,2,0,0,0,2-2v-39.5C139.89,147.5,136.42,139.72,126.84,139.72Zm-5,23.44V152.7a6.37,6.37,0,0,1,1.46-3.79,4.8,4.8,0,0,1,3.59-1.19c2.74,0,3.72,1.14,4.26,2.14a7.19,7.19,0,0,1,.79,2.86v10.44Z"/><path class="cls-1" d="M170.26,162.79h-8.54a2,2,0,0,0-2,2v4a2,2,0,0,0,2,2h2.54V182.5a6.41,6.41,0,0,1-1.46,3.79,4.81,4.81,0,0,1-3.59,1.18c-4.3,0-5-3.16-5.05-5V152.32a6.41,6.41,0,0,1,1.46-3.79,4.84,4.84,0,0,1,3.59-1.18c4.3,0,5,3.16,5,5v4.23a2,2,0,0,0,2,2h4a2,2,0,0,0,2-2v-4.23c0-5.23-3.47-13-13-13a12.59,12.59,0,0,0-9.27,3.55,14.18,14.18,0,0,0-3.78,9.45v30.12c0,5.23,3.47,13,13.05,13a12.59,12.59,0,0,0,9.27-3.55,14.16,14.16,0,0,0,3.78-9.45V170.79h0v-6A2,2,0,0,0,170.26,162.79Z"/><rect class="cls-1" x="65.42" y="140.97" width="8" height="52.88" rx="2" ry="2"/><path class="cls-1" d="M50.58,143v19.82h-10V143a2,2,0,0,0-2-2h-4a2,2,0,0,0-2,2v48.88a2,2,0,0,0,2,2h4a2,2,0,0,0,2-2V170.79h10v21.06a2,2,0,0,0,2,2h4a2,2,0,0,0,2-2V143a2,2,0,0,0-2-2h-4A2,2,0,0,0,50.58,143Z"/><path class="cls-2" d="M191.66,70.23a12.61,12.61,0,0,0-9.07,3.37,13.83,13.83,0,0,0-18.3.18,14.21,14.21,0,0,0-3.79,9.45v39.5a2,2,0,0,0,2,2h4a2,2,0,0,0,2-2V83.21A6.44,6.44,0,0,1,170,79.42a4.82,4.82,0,0,1,3.6-1.19c2.74,0,3.71,1.14,4.26,2.14a7.19,7.19,0,0,1,.79,2.86v39.5a2,2,0,0,0,2,2h4a2,2,0,0,0,2-2V83.21a6.37,6.37,0,0,1,1.46-3.79,4.8,4.8,0,0,1,3.59-1.19c2.74,0,3.72,1.14,4.26,2.14a7.19,7.19,0,0,1,.79,2.86v39.5a2,2,0,0,0,2,2h4a2,2,0,0,0,2-2V83.23C204.71,78,201.24,70.23,191.66,70.23Z"/><path class="cls-2" d="M108.08,70.23a12.57,12.57,0,0,0-9.27,3.55A14.21,14.21,0,0,0,95,83.23v39.5a2,2,0,0,0,2,2h4a2,2,0,0,0,2-2V101.67h10.11v21.06a2,2,0,0,0,2,2h4a2,2,0,0,0,2-2V83.23C121.13,78,117.65,70.23,108.08,70.23ZM103,93.67V83.21a6.44,6.44,0,0,1,1.46-3.79,4.82,4.82,0,0,1,3.6-1.19c2.74,0,3.71,1.14,4.26,2.14a7.19,7.19,0,0,1,.79,2.86V93.67Z"/><path class="cls-2" d="M87.9,77.86v-4a2,2,0,0,0-2-2H70.77a2,2,0,0,0-2,2v48.87a2,2,0,0,0,2,2h4a2,2,0,0,0,2-2V101.67H85.9a2,2,0,0,0,2-2v-4a2,2,0,0,0-2-2H76.77V79.86H85.9A2,2,0,0,0,87.9,77.86Z"/><path class="cls-2" d="M153.87,87.1c0-4.9-1.41-8.77-4.17-11.51a13.11,13.11,0,0,0-8.83-3.73H129.76a2,2,0,0,0-2,2v48.87a2,2,0,0,0,2,2h4a2,2,0,0,0,2-2V102.34h5.11l.48,0c3.82.26,4.48,3.21,4.52,5v15.43a2,2,0,0,0,2,2h4a2,2,0,0,0,2-2V107.3A13.82,13.82,0,0,0,150.2,98C152.3,95.68,153.87,92.21,153.87,87.1Zm-18.11-7.24h5.07c1.52,0,5,.83,5,7.24,0,6-3.09,7.05-4.69,7.21h-.36l0,0h-5Z"/><path class="cls-2" d="M144.39,54.5h-4a2,2,0,0,1-2-2V13h0a7.26,7.26,0,0,0-.79-2.87c-.54-1-1.52-2.13-4.26-2.13a4.81,4.81,0,0,0-3.59,1.19A6.37,6.37,0,0,0,128.29,13V52.5a2,2,0,0,1-2,2h-4a2,2,0,0,1-2-2V13a14.23,14.23,0,0,1,3.78-9.45A12.59,12.59,0,0,1,133.34,0c9.58,0,13,7.77,13,13V52.5A2,2,0,0,1,144.39,54.5Z"/><path class="cls-2" d="M68.08,0a12.57,12.57,0,0,0-9.27,3.55A14.21,14.21,0,0,0,55,13V43.12c0,5.23,3.48,13,13.06,13a12.57,12.57,0,0,0,9.26-3.54,14.23,14.23,0,0,0,3.79-9.46V13C81.13,7.77,77.65,0,68.08,0Zm5,43.15a6.46,6.46,0,0,1-1.46,3.79,4.81,4.81,0,0,1-3.59,1.18c-4.3,0-5-3.15-5.06-5V13a6.44,6.44,0,0,1,1.46-3.78A4.82,4.82,0,0,1,68.08,8c4.29,0,5,3.16,5,5V43.15Z"/><path class="cls-2" d="M47.29,19.23a2,2,0,0,0,2-2V13c0-5.23-3.47-13-13-13A12.59,12.59,0,0,0,27,3.55,14.23,14.23,0,0,0,23.19,13V43.12c0,5.23,3.48,13,13.05,13a12.59,12.59,0,0,0,9.27-3.54,14.14,14.14,0,0,0,3.78-9.46V38.73a2,2,0,0,0-2-2h-4a2,2,0,0,0-2,2v4.42a6.39,6.39,0,0,1-1.46,3.79,4.8,4.8,0,0,1-3.59,1.18c-4.3,0-5-3.15-5.05-5V13a6.37,6.37,0,0,1,1.46-3.78A4.81,4.81,0,0,1,36.24,8c4.3,0,5,3.16,5,5v4.23a2,2,0,0,0,2,2Z"/><path class="cls-2" d="M172.44,7.62v-4a2,2,0,0,0-2-2H155.31a2,2,0,0,0-2,2V52.5a2,2,0,0,0,2,2h15.13a2,2,0,0,0,2-2v-4a2,2,0,0,0-2-2h-9.13V31.44h9.13a2,2,0,0,0,2-2v-4a2,2,0,0,0-2-2h-9.13V9.62h9.13A2,2,0,0,0,172.44,7.62Z"/><path class="cls-2" d="M113.63,16.86c0-4.89-1.41-8.76-4.17-11.51a13.13,13.13,0,0,0-8.83-3.72H89.52a2,2,0,0,0-2,2V52.5a2,2,0,0,0,2,2h4a2,2,0,0,0,2-2V32.1h5.59c3.82.25,4.48,3.21,4.52,5V52.5a2,2,0,0,0,2,2h4a2,2,0,0,0,2-2V37.06A13.8,13.8,0,0,0,110,27.78C112.06,25.45,113.63,22,113.63,16.86ZM95.52,9.62h5.07c1.52.05,5,.84,5,7.24,0,5.95-3.09,7.06-4.69,7.22l-.36,0,0,0h-5Z"/><path class="cls-2" d="M204.71,16.86c0-4.89-1.4-8.76-4.17-11.51a13.1,13.1,0,0,0-8.83-3.72h-11.1a2,2,0,0,0-2,2V52.5a2,2,0,0,0,2,2h4a2,2,0,0,0,2-2V32.1h5.58c3.82.25,4.48,3.21,4.52,5V52.5a2,2,0,0,0,2,2h4a2,2,0,0,0,2-2V37.06a13.79,13.79,0,0,0-3.66-9.28C203.15,25.45,204.71,22,204.71,16.86Zm-18.1-7.24h5.07c1.51.05,5,.84,5,7.24,0,5.95-3.09,7.06-4.68,7.22l-.37,0,0,0h-5Z"/><path class="cls-1" d="M220.5,1.62v192.6l61.92-36,61.92,36V1.62ZM333.17,169.9s-20.09-6.67-31-18.25-30.92-35.08-30.92-35.08-5.67-6.59,1.17-10.42l4.7-2.27c-.72-3.27-.46-7-.22-10.47a42.63,42.63,0,0,0,.18-4.37c-.06-1.88-2.05-4.89-3.8-6.94-3.8.39-10.28-8.36-12.28-11.28-2.17-3.17-.75-5.09-2.25-8s-18.5-28.34-22.5-35.5,1.42-10.46,1.42-10.46,5.83-4.71,12.25,4c6.81,9.29,24.75,41.92,29.5,51.92,1.12,2.36.94,3.94.59,4.85,2.09,2.58,4.92,6.83,5.07,11.09.05,1.56-.07,3.33-.2,5.2a57.66,57.66,0,0,0-.19,6.27l6.39-3.08s10.84-4.75,15.17,1.5,21.42,34.5,21.42,34.5,5.5,9,5.5,18.92Z"/></g></g></svg>
