<?xml version="1.0" encoding="UTF-8"?>
<svg width="16px" height="24px" viewBox="0 0 16 24" version="1.1" xmlns="http://www.w3.org/2000/svg" xmlns:xlink="http://www.w3.org/1999/xlink">
    <!-- Generator: Sketch 47.1 (45422) - http://www.bohemiancoding.com/sketch -->
    <title>Fill 1</title>
    <desc>Created with Sketch.</desc>
    <defs></defs>
    <g id="Page-1" stroke="none" stroke-width="1" fill="none" fill-rule="evenodd">
        <g id="Desktop-HD" transform="translate(-794.000000, -1117.000000)" fill="#ED1758">
            <g id="Group-4" transform="translate(0.000000, 983.000000)">
                <path d="M794.000895,147.763018 C794.000895,144.52214 794.000832,141.281293 794.00099,138.040415 C794.001021,137.499564 794.100414,136.977928 794.304877,136.47655 C794.782086,135.306215 795.83498,134.406795 797.065676,134.119031 C797.271907,134.07085 797.480188,134.040748 797.69172,134.022132 C797.903631,134.003453 798.114941,134.001559 798.326789,134.001528 C801.840254,134.001307 805.353719,134.00137 808.867153,134.00137 C808.912589,134.00137 808.958499,133.997521 809.003336,134.002727 C809.052843,134.008469 809.103896,134.0162 809.149742,134.034469 C809.224807,134.064382 809.272073,134.122849 809.281224,134.205361 C809.286746,134.255372 809.28867,134.306046 809.288702,134.356405 C809.289049,135.663838 809.289017,136.971302 809.288765,138.278735 C809.288765,138.324108 809.288733,138.36986 809.283212,138.414792 C809.268508,138.534409 809.194642,138.606887 809.076034,138.616037 C809.010719,138.621086 808.944868,138.61954 808.879269,138.61954 C805.759555,138.619697 802.63984,138.619666 799.520126,138.619729 C799.459575,138.619729 799.398772,138.617552 799.338475,138.621843 C799.122273,138.637146 799.020136,138.744364 799.013415,138.960155 C799.012311,138.995463 799.012942,139.030834 799.012942,139.066173 C799.012942,140.469527 799.01291,141.872881 799.012973,143.276267 C799.012973,143.321703 799.011459,143.367266 799.014393,143.412513 C799.026636,143.60079 799.134989,143.70968 799.321341,143.720376 C799.376685,143.723563 799.432377,143.721575 799.487878,143.721575 C802.25423,143.721607 805.020582,143.721607 807.786934,143.721639 C807.847516,143.721639 807.908255,143.719651 807.968616,143.723311 C808.089528,143.730568 808.175415,143.813553 808.186648,143.933202 C808.190876,143.978291 808.189645,144.02398 808.189645,144.069385 C808.189803,145.331413 808.189772,146.593441 808.18974,147.855469 C808.18974,147.890776 808.190434,147.926179 808.188636,147.961424 C808.180684,148.119284 808.088928,148.208043 807.927755,148.213407 C807.877302,148.21511 807.826817,148.21388 807.7763,148.21388 C805.004932,148.21388 802.233531,148.21388 799.462131,148.213911 C799.406598,148.213911 799.35097,148.211987 799.295594,148.215142 C799.157044,148.223093 799.058063,148.303869 799.027361,148.439453 C799.015245,148.492872 799.013762,148.549447 799.013541,148.604601 C799.012342,148.932722 799.012942,149.260874 799.012942,149.588994 C799.01291,150.68947 799.01291,151.789946 799.013036,152.890423 C799.013036,152.945956 799.010607,153.001773 799.015781,153.056897 C799.030327,153.212611 799.114448,153.305282 799.267417,153.335826 C799.306701,153.343651 799.347373,153.346175 799.387571,153.347626 C799.44301,153.349614 799.498575,153.348384 799.554108,153.348384 C802.764696,153.348384 805.975283,153.348384 809.185839,153.348447 C809.246421,153.348447 809.307097,153.351224 809.367553,153.348731 C809.513833,153.342767 809.59423,153.431242 809.624269,153.539438 C809.653865,153.646087 809.682516,153.753998 809.698071,153.863267 C809.722935,154.037818 809.737418,154.213884 809.754551,154.389509 C809.758937,154.434566 809.758874,154.480381 809.757233,154.525692 C809.74417,154.884071 809.714037,155.239738 809.618905,155.587957 C809.345971,156.586769 808.72914,157.278381 807.770368,157.665158 C807.418236,157.807179 807.051558,157.892467 806.67513,157.94251 C806.359378,157.984475 806.043217,158.000094 805.725067,158 C801.944064,157.998927 798.16306,157.999337 794.382056,157.999305 C794.336651,157.999305 794.29112,158.000568 794.24581,157.998327 C794.113382,157.991733 794.01847,157.90512 794.003672,157.773196 C793.997519,157.718294 794.000958,157.662256 794.000958,157.606754 C794.000864,154.325487 794.000895,151.044253 794.000895,147.763018" id="Fill-1"></path>
            </g>
        </g>
    </g>
</svg>