<?xml version="1.0" encoding="UTF-8"?>
<svg width="24px" height="24px" viewBox="0 0 24 24" version="1.1" xmlns="http://www.w3.org/2000/svg" xmlns:xlink="http://www.w3.org/1999/xlink">
    <!-- Generator: Sketch 47.1 (45422) - http://www.bohemiancoding.com/sketch -->
    <title></title>
    <desc>Created with Sketch.</desc>
    <defs></defs>
    <g id="Page-1" stroke="none" stroke-width="1" fill="none" fill-rule="evenodd">
        <g id="Desktop-HD" transform="translate(-540.000000, -1117.000000)" fill="#ED1758">
            <g id="Group-4" transform="translate(0.000000, 983.000000)">
                <path d="M559.5,134 C560.73959,134 561.799475,134.4401 562.679688,135.320312 C563.5599,136.200525 564,137.26041 564,138.5 L564,153.5 C564,154.73959 563.5599,155.799475 562.679688,156.679687 C561.799475,157.5599 560.73959,158 559.5,158 L556.5625,158 L556.5625,148.703125 L559.671875,148.703125 L560.140625,145.078125 L556.5625,145.078125 L556.5625,142.765625 C556.5625,142.182289 556.684895,141.744793 556.929688,141.453125 C557.17448,141.161457 557.651038,141.015625 558.359375,141.015625 L560.265625,141 L560.265625,137.765625 C559.609372,137.671875 558.682298,137.625 557.484375,137.625 C556.067701,137.625 554.9349,138.041662 554.085938,138.875 C553.236975,139.708337 552.8125,140.885409 552.8125,142.40625 L552.8125,145.078125 L549.6875,145.078125 L549.6875,148.703125 L552.8125,148.703125 L552.8125,158 L544.5,158 C543.26041,158 542.200525,157.5599 541.320312,156.679687 C540.4401,155.799475 540,154.73959 540,153.5 L540,138.5 C540,137.26041 540.4401,136.200525 541.320312,135.320312 C542.200525,134.4401 543.26041,134 544.5,134 L559.5,134 Z" id=""></path>
            </g>
        </g>
    </g>
</svg>