<?xml version="1.0" encoding="UTF-8"?>
<svg width="24px" height="24px" viewBox="0 0 24 24" version="1.1" xmlns="http://www.w3.org/2000/svg" xmlns:xlink="http://www.w3.org/1999/xlink">
    <!-- Generator: Sketch 47.1 (45422) - http://www.bohemiancoding.com/sketch -->
    <title></title>
    <desc>Created with Sketch.</desc>
    <defs></defs>
    <g id="Page-1" stroke="none" stroke-width="1" fill="none" fill-rule="evenodd">
        <g id="Desktop-HD" transform="translate(-665.000000, -1117.000000)" fill="#ED1758">
            <g id="Group-4" transform="translate(0.000000, 983.000000)">
                <path d="M681,146 C681,144.895828 680.609379,143.953129 679.828125,143.171875 C679.046871,142.390621 678.104172,142 677,142 C675.895828,142 674.953129,142.390621 674.171875,143.171875 C673.390621,143.953129 673,144.895828 673,146 C673,147.104172 673.390621,148.046871 674.171875,148.828125 C674.953129,149.609379 675.895828,150 677,150 C678.104172,150 679.046871,149.609379 679.828125,148.828125 C680.609379,148.046871 681,147.104172 681,146 Z M683.15625,146 C683.15625,147.708342 682.557298,149.161452 681.359375,150.359375 C680.161452,151.557298 678.708342,152.15625 677,152.15625 C675.291658,152.15625 673.838548,151.557298 672.640625,150.359375 C671.442702,149.161452 670.84375,147.708342 670.84375,146 C670.84375,144.291658 671.442702,142.838548 672.640625,141.640625 C673.838548,140.442702 675.291658,139.84375 677,139.84375 C678.708342,139.84375 680.161452,140.442702 681.359375,141.640625 C682.557298,142.838548 683.15625,144.291658 683.15625,146 Z M684.84375,139.59375 C684.84375,139.989585 684.703126,140.328124 684.421875,140.609375 C684.140624,140.890626 683.802085,141.03125 683.40625,141.03125 C683.010415,141.03125 682.671876,140.890626 682.390625,140.609375 C682.109374,140.328124 681.96875,139.989585 681.96875,139.59375 C681.96875,139.197915 682.109374,138.859376 682.390625,138.578125 C682.671876,138.296874 683.010415,138.15625 683.40625,138.15625 C683.802085,138.15625 684.140624,138.296874 684.421875,138.578125 C684.703126,138.859376 684.84375,139.197915 684.84375,139.59375 Z M677,136.15625 C676.927083,136.15625 676.528649,136.153646 675.804688,136.148437 C675.080726,136.143229 674.531252,136.143229 674.15625,136.148437 C673.781248,136.153646 673.278649,136.169271 672.648438,136.195312 C672.018226,136.221354 671.481773,136.273437 671.039062,136.351562 C670.596352,136.429688 670.22396,136.526041 669.921875,136.640625 C669.401039,136.848959 668.94271,137.15104 668.546875,137.546875 C668.15104,137.94271 667.848959,138.401039 667.640625,138.921875 C667.526041,139.22396 667.429688,139.596352 667.351562,140.039062 C667.273437,140.481773 667.221354,141.018226 667.195312,141.648438 C667.169271,142.278649 667.153646,142.781248 667.148438,143.15625 C667.143229,143.531252 667.143229,144.080726 667.148438,144.804687 C667.153646,145.528649 667.15625,145.927083 667.15625,146 C667.15625,146.072917 667.153646,146.471351 667.148438,147.195312 C667.143229,147.919274 667.143229,148.468748 667.148438,148.84375 C667.153646,149.218752 667.169271,149.721351 667.195312,150.351562 C667.221354,150.981774 667.273437,151.518227 667.351562,151.960937 C667.429688,152.403648 667.526041,152.77604 667.640625,153.078125 C667.848959,153.598961 668.15104,154.05729 668.546875,154.453125 C668.94271,154.84896 669.401039,155.151041 669.921875,155.359375 C670.22396,155.473959 670.596352,155.570312 671.039062,155.648438 C671.481773,155.726563 672.018226,155.778646 672.648438,155.804687 C673.278649,155.830729 673.781248,155.846354 674.15625,155.851562 C674.531252,155.856771 675.080726,155.856771 675.804688,155.851562 C676.528649,155.846354 676.927083,155.84375 677,155.84375 C677.072917,155.84375 677.471351,155.846354 678.195312,155.851562 C678.919274,155.856771 679.468748,155.856771 679.84375,155.851562 C680.218752,155.846354 680.721351,155.830729 681.351562,155.804687 C681.981774,155.778646 682.518227,155.726563 682.960938,155.648438 C683.403648,155.570312 683.77604,155.473959 684.078125,155.359375 C684.598961,155.151041 685.05729,154.84896 685.453125,154.453125 C685.84896,154.05729 686.151041,153.598961 686.359375,153.078125 C686.473959,152.77604 686.570312,152.403648 686.648437,151.960937 C686.726563,151.518227 686.778646,150.981774 686.804688,150.351562 C686.830729,149.721351 686.846354,149.218752 686.851562,148.84375 C686.856771,148.468748 686.856771,147.919274 686.851562,147.195312 C686.846354,146.471351 686.84375,146.072917 686.84375,146 C686.84375,145.927083 686.846354,145.528649 686.851562,144.804687 C686.856771,144.080726 686.856771,143.531252 686.851562,143.15625 C686.846354,142.781248 686.830729,142.278649 686.804688,141.648438 C686.778646,141.018226 686.726563,140.481773 686.648437,140.039062 C686.570312,139.596352 686.473959,139.22396 686.359375,138.921875 C686.151041,138.401039 685.84896,137.94271 685.453125,137.546875 C685.05729,137.15104 684.598961,136.848959 684.078125,136.640625 C683.77604,136.526041 683.403648,136.429688 682.960938,136.351562 C682.518227,136.273437 681.981774,136.221354 681.351562,136.195312 C680.721351,136.169271 680.218752,136.153646 679.84375,136.148437 C679.468748,136.143229 678.919274,136.143229 678.195312,136.148437 C677.471351,136.153646 677.072917,136.15625 677,136.15625 Z M689,146 C689,148.385429 688.973959,150.036454 688.921875,150.953125 C688.817708,153.119802 688.171881,154.796869 686.984375,155.984375 C685.796869,157.171881 684.119802,157.817708 681.953125,157.921875 C681.036454,157.973959 679.385429,158 677,158 C674.614571,158 672.963546,157.973959 672.046875,157.921875 C669.880198,157.817708 668.203131,157.171881 667.015625,155.984375 C665.828119,154.796869 665.182292,153.119802 665.078125,150.953125 C665.026041,150.036454 665,148.385429 665,146 C665,143.614571 665.026041,141.963546 665.078125,141.046875 C665.182292,138.880198 665.828119,137.203131 667.015625,136.015625 C668.203131,134.828119 669.880198,134.182292 672.046875,134.078125 C672.963546,134.026041 674.614571,134 677,134 C679.385429,134 681.036454,134.026041 681.953125,134.078125 C684.119802,134.182292 685.796869,134.828119 686.984375,136.015625 C688.171881,137.203131 688.817708,138.880198 688.921875,141.046875 C688.973959,141.963546 689,143.614571 689,146 Z" id=""></path>
            </g>
        </g>
    </g>
</svg>