<?xml version="1.0" encoding="UTF-8"?>
<svg width="28px" height="53px" viewBox="0 0 28 53" version="1.1" xmlns="http://www.w3.org/2000/svg" xmlns:xlink="http://www.w3.org/1999/xlink">
    <!-- Generator: Sketch 47.1 (45422) - http://www.bohemiancoding.com/sketch -->
    <title>carrot copy</title>
    <desc>Created with Sketch.</desc>
    <defs></defs>
    <g id="Page-1" stroke="none" stroke-width="1" fill="none" fill-rule="evenodd">
        <g id="Desktop-HD" transform="translate(-706.000000, -988.000000)" fill-rule="nonzero">
            <g id="Group-4" transform="translate(0.000000, 983.000000)">
                <g id="Group-3" transform="translate(690.000000, 0.000000)">
                    <g id="carrot-copy" transform="translate(30.000000, 30.155039) rotate(-45.000000) translate(-30.000000, -30.155039) translate(10.000000, 10.000000)">
                        <path d="M28.1147287,21.1131783 C27.4165969,19.0355942 26.2397026,17.1512887 24.6790698,15.6124031 C22.0403101,12.9705426 18.744186,11.7829457 16.8,11.7829457 C15.8697674,11.7829457 15.1596899,12.0403101 14.7348837,12.5271318 C13.2731776,14.258283 11.9236546,16.0811229 10.6945736,17.9844961 C10.8962988,18.4441841 11.2175151,18.8414216 11.6248062,19.1348837 C11.7554213,19.1993328 11.8900695,19.2552636 12.027907,19.3023256 C12.9333333,19.6372093 14.6170543,20.2635659 15.8976744,22.8837209 C16.0245176,23.144054 16.0028394,23.4522817 15.8408059,23.6922976 C15.6787725,23.9323135 15.4010004,24.0676535 15.1121238,24.0473364 C14.8232471,24.0270192 14.5671532,23.8541315 14.4403101,23.5937984 C13.4449612,21.5534884 12.2511628,21.1131783 11.4666667,20.8031008 C11.2205916,20.725336 10.9835749,20.6213813 10.7596899,20.4930233 C10.3593805,20.2215953 10.007244,19.8851792 9.71782946,19.4976744 C7.9751938,22.2573643 6.28837209,25.1968992 4.93953488,27.7178295 L4.70697674,28.1550388 C4.92029332,28.3847545 5.15609718,28.5925112 5.41085271,28.7751938 C5.44357578,28.7977764 5.47466105,28.8226446 5.50387597,28.8496124 C5.69509019,28.9919411 5.90344293,29.1096604 6.12403101,29.2 C6.88682171,29.5565891 8.04031008,30.096124 8.63875969,31.875969 C8.73070712,32.1501496 8.66939646,32.4525562 8.47792283,32.6692753 C8.2864492,32.8859944 7.99390201,32.9841012 7.71048096,32.9266397 C7.4270599,32.8691782 7.19582339,32.6648783 7.10387597,32.3906977 C6.72868217,31.2992248 6.13643411,31.0077519 5.44186047,30.6976744 C5.08639305,30.5507988 4.75340193,30.3545532 4.45271318,30.1147287 C4.26721405,29.9775701 4.0891821,29.8305903 3.91937984,29.6744186 C-0.595348837,38.4248062 0.251162791,39.2744186 0.620155039,39.6496124 C0.891348744,39.899614 1.25380752,40.0264184 1.62170543,40 C3.48217054,40 9.31162791,37.4387597 16.6976744,32.9705426 C16.4526563,32.7660407 16.2235699,32.5431739 16.0124031,32.303876 C15.5892761,31.855648 15.2387945,31.3440496 14.9736434,30.7875969 C14.5829457,30.0496124 14.3224806,29.5472868 13.3085271,29.2031008 C13.0240922,29.1164653 12.8100693,28.8808357 12.7511055,28.5894044 C12.6921416,28.297973 12.7977334,27.9976774 13.0261188,27.8072855 C13.2545042,27.6168937 13.5688999,27.5670698 13.8449612,27.6775194 C15.4573643,28.2418605 15.9627907,29.1906977 16.4062016,30.027907 C16.6096768,30.4619228 16.8795858,30.8615555 17.2062016,31.2124031 C17.4968818,31.5314876 17.8200807,31.8193528 18.1705426,32.0713178 C20.2387597,30.7875969 22.4031008,29.3612403 24.6263566,27.8108527 C24.3162791,27.5255814 24.096124,27.2868217 24.0496124,27.2341085 C23.6672289,26.8157019 23.353288,26.3395582 23.1193798,25.8232558 C22.6325581,24.8713178 22.3131783,24.2449612 21.0418605,24.2449612 C20.5948951,24.2449612 20.2325581,23.8826242 20.2325581,23.4356589 C20.2325581,22.9886936 20.5948951,22.6263566 21.0418605,22.6263566 C23.3054264,22.6263566 24.0310078,24.0465116 24.5612403,25.0883721 C24.7262088,25.460181 24.9445276,25.8059394 25.2093023,26.1147287 C25.4519245,26.3755105 25.7075464,26.623888 25.9751938,26.8589147 C26.551938,26.445478 27.1317829,26.0258398 27.7147287,25.6 C27.7465,25.5752012 27.7765438,25.5482654 27.8046512,25.5193798 C28.6232558,24.7007752 28.7348837,23.0976744 28.1147287,21.1193798" id="Shape" fill="#F37321"></path>
                        <path d="M23.7488372,16.6108527 C23.4122374,16.6103999 23.1110595,16.4016508 22.9924937,16.0866241 C22.8739278,15.7715974 22.9627311,15.416072 23.2155039,15.1937984 C26.7565891,12.1364341 26.8465116,9.87906977 26.9116279,8.37209302 C26.9426357,7.57209302 26.9736434,6.82170543 27.5658915,6.27906977 C27.9928491,5.88007848 28.5637116,5.67188159 29.1472868,5.70232558 C29.0465065,5.02525155 29.3295327,4.34813818 29.8821705,3.94418605 C30.3398614,3.64440056 30.9025554,3.55099337 31.4325581,3.68682171 C31.43754,3.41520444 31.4900109,3.14655377 31.5875969,2.89302326 C31.7625911,2.44966817 32.1142267,2.09915593 32.5581395,1.9255814 C33.2996065,1.60228835 34.1608598,1.7337682 34.772093,2.26356589 C35.1939553,1.87949798 35.7568058,1.68863825 36.3252664,1.73689267 C36.893727,1.78514709 37.4163532,2.06814873 37.7674419,2.51782946 C38.2258781,2.97450349 38.4537458,3.61367242 38.3875969,4.25736434 C38.3319178,4.66630906 38.1717211,5.05398508 37.9224806,5.38294574 C38.224406,5.6507301 38.4564382,5.98813474 38.5984496,6.36589147 C38.7795922,6.88454023 38.7369082,7.45515771 38.4806202,7.94108527 C38.2363726,8.43992654 37.7707673,8.79401653 37.2248062,8.89612403 C37.2725933,9.04293732 37.3027788,9.19490556 37.3147287,9.34883721 C37.3633748,9.82089603 37.2127647,10.2918336 36.8992248,10.648062 C36.4971534,11.0931537 35.920521,11.34012 35.3209302,11.324031 C35.0997819,11.3227379 34.8794065,11.2977897 34.6635659,11.2496124 C34.6837264,11.8807273 34.4345738,12.4906439 33.9782946,12.9271318 C33.4232251,13.481973 32.6635103,13.7827168 31.8790698,13.7581395 C31.6248062,13.7581395 31.3550388,13.7364341 31.0635659,13.7116279 C30.772093,13.6868217 30.4713178,13.655814 30.1333333,13.655814 C28.9736434,13.655814 27.2589147,13.9658915 24.275969,16.4465116 C24.132527,16.5662529 23.9511857,16.6310962 23.7643411,16.6294574" id="Shape" fill="#00A180"></path>
                        <path d="M39.1968992,15.9751938 C39.3004999,15.4256181 39.156408,14.8583273 38.8031008,14.4248062 C38.4742371,14.0944507 38.0288976,13.9062948 37.5627907,13.9007752 C37.4092795,13.4079292 37.0906141,12.9830421 36.6604651,12.6976744 C36.4247094,12.7876915 36.1806268,12.8541651 35.9317829,12.896124 C35.7286674,13.3513817 35.436648,13.761474 35.0728682,14.1023256 C34.2174376,14.942838 33.0594943,15.4033329 31.8604651,15.379845 C31.5503876,15.379845 31.2403101,15.3550388 30.8806202,15.3209302 C30.620155,15.2992248 30.3689922,15.2775194 30.1085271,15.2775194 C30.0372093,15.2775194 29.944186,15.2775194 29.8387597,15.2775194 C30.1776068,15.4763854 30.4901308,15.7170289 30.7689922,15.9937984 C30.5014264,16.4293932 30.4326066,16.9585162 30.579845,17.448062 C30.7047808,17.768554 30.9542551,18.0247406 31.2713178,18.1581395 C31.352728,18.1909454 31.4367425,18.2168758 31.5224806,18.2356589 C31.4986575,18.5058783 31.530313,18.7781156 31.6155039,19.0356589 C31.7997915,19.4867216 32.2267435,19.7918596 32.7131783,19.820155 C32.7172328,20.5961429 33.1759855,21.2976219 33.8852713,21.6124031 C34.296573,21.8141904 34.7738635,21.8333271 35.2,21.6651163 C35.4547936,21.561657 35.6866261,21.4088583 35.8821705,21.2155039 C36.0622403,21.3917426 36.2722311,21.5345364 36.5023256,21.6372093 C36.7353829,21.7376588 36.9865272,21.789365 37.2403101,21.7891473 C37.5516437,21.7865401 37.8586096,21.7156204 38.1395349,21.5813953 C38.6925938,21.3648153 39.1170778,20.9083809 39.2930233,20.3410853 C39.3901698,19.9733828 39.3837309,19.5859764 39.2744186,19.2217054 C39.6117939,18.8724345 39.8383478,18.4311939 39.9255814,17.9534884 C40.0773898,17.2036418 39.7796674,16.4339203 39.1627907,15.9813953" id="Shape" fill="#00A180"></path>
                        <path d="M22.1426357,9.01395349 C22.2758205,9.33045885 22.5322269,9.5790275 22.8527132,9.70232558 C23.3158502,9.84563726 23.8176675,9.7906282 24.2387597,9.5503876 C24.4939203,9.8899794 24.6938025,10.2677671 24.8310078,10.6697674 C25.1393868,9.92273654 25.2943973,9.12132147 25.2868217,8.31317829 C25.3271318,7.38294574 25.379845,6.08372093 26.4713178,5.09147287 C26.8242787,4.76990384 27.2330697,4.5155917 27.6775194,4.34108527 C27.7179957,4.22153499 27.765627,4.1045278 27.820155,3.99069767 C27.8015504,3.95658915 27.7953488,3.9255814 27.7767442,3.89147287 C27.4958789,3.3390279 27.0021468,2.92478553 26.4093023,2.74418605 C26.4022994,2.27777656 26.2131055,1.83261436 25.8821705,1.50387597 C25.4498392,1.14821149 24.881438,1.00383757 24.3317829,1.11007752 C23.8774478,0.492039528 23.1047135,0.195299867 22.3534884,0.350387597 C21.8761415,0.438674848 21.4351895,0.665080507 21.0852713,1.00155039 C20.7199825,0.891977588 20.3315101,0.885538818 19.9627907,0.982945736 C19.3959599,1.15969307 18.9398268,1.58389685 18.7224806,2.13643411 C18.4685858,2.64857059 18.4482392,3.24540503 18.6666667,3.77364341 C18.7697403,4.00351431 18.9124886,4.21343827 19.0883721,4.39379845 C18.8957457,4.58930905 18.7439597,4.82120425 18.6418605,5.07596899 C18.4738959,5.50320859 18.4930212,5.98133954 18.6945736,6.39379845 C19.0039516,7.09910809 19.6950815,7.56026481 20.4651163,7.5751938 C20.490527,8.06858762 20.8021835,8.50151137 21.2620155,8.68217054 C21.5198308,8.76605883 21.7920104,8.79665266 22.0620155,8.77209302 C22.0810598,8.85913381 22.1080462,8.94424473 22.1426357,9.02635659" id="Shape" fill="#00A180"></path>
                    </g>
                </g>
            </g>
        </g>
    </g>
</svg>